# xmcd
#
# Track frame offsets: 
#        150
#        10147
#        28091
#        35478
#        51929
#        64219
#        73367
#        90920
#        106251
#        121523
#        138761
#        147667
#        157988
#        168275
#
# Disc length: 2404 seconds
#
# Revision: 0
# Processed by: cddbd v1.5.2PL0 Copyright (c) Steve Scherf et al.
# Submitted via: ExactAudioCopy v1.0b1
#
DISCID=b809620e
DTITLE=Matuška Waldemar a Olga - Teče voda, teče
DYEAR=1986
DGENRE=Country
TTITLE0=Koupím já si koně vraný
TTITLE1=Rožnovské hodiny
TTITLE2=Ja som bača
TTITLE3=Domažlice
TTITLE4=Tálinský rybník
TTITLE5=Čerešničky
TTITLE6=Ej, od Buchlova
TTITLE7=Teče voda, teče
TTITLE8=Pod našimi okny
TTITLE9=Hory čierne
TTITLE10=Aničko, dušičko
TTITLE11=Ach není tu není
TTITLE12=Rajneráček
TTITLE13=Tancuj, tancuj
EXTD=
EXTT0=
EXTT1=
EXTT2=
EXTT3=
EXTT4=
EXTT5=
EXTT6=
EXTT7=
EXTT8=
EXTT9=
EXTT10=
EXTT11=
EXTT12=
EXTT13=
PLAYORDER=
